<?xml version="1.0" encoding="UTF-8" standalone="no"?>
<svg
   xmlns:svg="http://www.w3.org/2000/svg"
   xmlns="http://www.w3.org/2000/svg"
   version="1.0"
   width="535"
   height="115"
   viewBox="-0.005 -0.082 535 115"
   id="svg2"
   xml:space="preserve">
	<defs
   id="defs4">
	</defs>
	<g
   transform="matrix(0.9812943,0,0,0.912911,6,6)"
   id="g6">
		<path
   d="M 1.793,0.004 L 0,0.004 L 0,114.811 L 46.336,114.811 C 73.077,114.811 88.409,102.867 88.409,82.045 C 88.409,65.887 81.044,56.144 67.654,52.98 C 74.417,48.26 77.933,41.057 77.933,30.709 C 77.933,10.332 66.208,0.004 43.102,0.004 M 32.77,25.722 C 42.508,25.722 47.786,27.15 47.786,34.695 C 47.786,41.068 43.778,43.656 33.952,43.656 C 33.952,43.656 33.214,43.656 32.506,43.656 C 32.506,40.923 32.506,28.468 32.506,25.722 C 32.559,25.722 32.77,25.722 32.77,25.722 z M 33.653,68.792 L 36.035,68.774 C 42.064,68.712 49.575,68.629 53.2,72.215 C 54.822,73.819 55.608,76.069 55.608,79.083 C 55.608,81.711 54.87,83.732 53.354,85.235 C 49.465,89.125 41.256,89.107 35.253,89.093 C 35.253,89.093 33.451,89.093 32.506,89.093 C 32.506,86.272 32.506,71.612 32.506,68.79 C 33.056,68.792 33.653,68.792 33.653,68.792 z M 159.794,0 L 159.794,28.081 C 159.794,28.081 128.654,28.081 125.429,28.081 C 125.429,30.7 125.429,40.452 125.429,43.071 C 128.637,43.071 158.028,43.071 158.028,43.071 L 158.028,71.156 C 158.028,71.156 128.637,71.156 125.429,71.156 C 125.429,73.798 125.429,84.089 125.429,86.735 C 128.655,86.735 159.794,86.735 159.794,86.735 L 159.794,114.811 L 92.922,114.811 L 92.922,0 L 158.001,0 M 198.58,0 C 198.58,0 198.58,83.285 198.58,86.735 C 201.806,86.735 233.239,86.735 233.239,86.735 L 233.239,114.811 L 166.069,114.811 L 166.069,0 L 196.778,0 M 413.218,0.009 L 413.218,28.09 C 413.218,28.09 382.07,28.09 378.839,28.09 C 378.839,30.709 378.839,40.465 378.839,43.084 C 382.052,43.084 411.446,43.084 411.446,43.084 L 411.446,71.165 C 411.446,71.165 382.051,71.165 378.839,71.165 C 378.839,73.811 378.839,84.103 378.839,86.739 C 382.069,86.739 413.218,86.739 413.218,86.739 L 413.218,114.825 L 346.347,114.825 L 346.347,0.009 L 411.421,0.009 M 534.595,0.009 L 534.595,114.825 L 503.007,114.825 C 503.007,114.825 457.638,56.448 452.435,49.737 C 452.435,58.126 452.435,114.825 452.435,114.825 L 419.929,114.825 L 419.929,0.009 L 451.512,0.009 C 451.512,0.009 496.881,58.263 502.084,64.951 C 502.084,56.584 502.084,0.009 502.084,0.009 L 532.798,0.009 M 281.624,0 L 238.825,0 L 238.825,114.812 L 281.624,114.812 C 313.761,114.812 339.913,89.06 339.913,57.411 C 339.913,25.752 313.761,0 281.624,0 M 271.318,28.151 C 289.213,28.538 300.322,39.638 300.322,57.41 C 300.322,75.357 289.481,86.168 271.318,86.634 L 271.318,28.151 z M 278.622,91.095 C 295.101,87.175 305.802,77.068 306.053,57.314 C 305.802,37.547 295.102,27.449 278.622,23.529 C 297.018,26.28 311.511,36.009 311.581,57.235 L 311.581,57.393 C 311.511,78.609 297.018,88.348 278.622,91.095 z M 316.397,57.313 C 316.155,33.626 303.249,18.149 283.587,13.473 C 305.507,16.743 322.496,31.939 322.523,57.269 C 322.523,57.269 322.528,57.334 322.528,57.348 L 322.523,57.348 C 322.497,82.682 305.407,97.769 283.487,101.038 C 303.144,96.363 316.155,80.995 316.397,57.313 z M 290.241,110.083 C 312.161,103.843 327.511,84.797 327.757,57.516 L 327.753,57.177 C 327.463,29.966 312.126,10.969 290.241,4.738 C 315.211,9.853 334.309,28.064 334.468,57.015 L 334.468,57.595 C 334.397,86.669 315.272,104.959 290.241,110.083 z"
   id="path8"
   style="fill:#215294" />
	</g>
</svg>